<?xml version="1.0" encoding="UTF-8"?>
<svg width="40" height="40" viewBox="0 0 40 40" fill="none" xmlns="http://www.w3.org/2000/svg">
  <rect width="40" height="40" rx="8" fill="#16A34A"/>
  <path d="M20 8C13.373 8 8 13.373 8 20C8 26.627 13.373 32 20 32C26.627 32 32 26.627 32 20C32 13.373 26.627 8 20 8ZM25.707 17.707L19.707 23.707C19.512 23.902 19.256 24 19 24C18.744 24 18.488 23.902 18.293 23.707L14.293 19.707C13.902 19.316 13.902 18.684 14.293 18.293C14.684 17.902 15.316 17.902 15.707 18.293L19 21.586L24.293 16.293C24.684 15.902 25.316 15.902 25.707 16.293C26.098 16.684 26.098 17.316 25.707 17.707Z" fill="white"/>
</svg>
