<svg id="visual" viewBox="0 0 960 540" width="960" height="540" xmlns="http://www.w3.org/2000/svg" xmlns:xlink="http://www.w3.org/1999/xlink" version="1.1"><rect x="0" y="0" width="960" height="540" fill="#FFDFC9"></rect><path d="M0 392L22.8 389.7C45.7 387.3 91.3 382.7 137 373.3C182.7 364 228.3 350 274 339.7C319.7 329.3 365.3 322.7 411.2 334C457 345.3 503 374.7 548.8 389.2C594.7 403.7 640.3 403.3 686 390.7C731.7 378 777.3 353 823 344.2C868.7 335.3 914.3 342.7 937.2 346.3L960 350L960 541L937.2 541C914.3 541 868.7 541 823 541C777.3 541 731.7 541 686 541C640.3 541 594.7 541 548.8 541C503 541 457 541 411.2 541C365.3 541 319.7 541 274 541C228.3 541 182.7 541 137 541C91.3 541 45.7 541 22.8 541L0 541Z" fill="#fa7268"></path><path d="M0 355L22.8 362C45.7 369 91.3 383 137 383.2C182.7 383.3 228.3 369.7 274 370.3C319.7 371 365.3 386 411.2 398.3C457 410.7 503 420.3 548.8 412.8C594.7 405.3 640.3 380.7 686 371.2C731.7 361.7 777.3 367.3 823 368C868.7 368.7 914.3 364.3 937.2 362.2L960 360L960 541L937.2 541C914.3 541 868.7 541 823 541C777.3 541 731.7 541 686 541C640.3 541 594.7 541 548.8 541C503 541 457 541 411.2 541C365.3 541 319.7 541 274 541C228.3 541 182.7 541 137 541C91.3 541 45.7 541 22.8 541L0 541Z" fill="#ef5f67"></path><path d="M0 443L22.8 443.3C45.7 443.7 91.3 444.3 137 439.5C182.7 434.7 228.3 424.3 274 424.8C319.7 425.3 365.3 436.7 411.2 439C457 441.3 503 434.7 548.8 426.8C594.7 419 640.3 410 686 404.8C731.7 399.7 777.3 398.3 823 405C868.7 411.7 914.3 426.3 937.2 433.7L960 441L960 541L937.2 541C914.3 541 868.7 541 823 541C777.3 541 731.7 541 686 541C640.3 541 594.7 541 548.8 541C503 541 457 541 411.2 541C365.3 541 319.7 541 274 541C228.3 541 182.7 541 137 541C91.3 541 45.7 541 22.8 541L0 541Z" fill="#e34c67"></path><path d="M0 469L22.8 464.3C45.7 459.7 91.3 450.3 137 447.7C182.7 445 228.3 449 274 453.3C319.7 457.7 365.3 462.3 411.2 466.8C457 471.3 503 475.7 548.8 471.5C594.7 467.3 640.3 454.7 686 450.8C731.7 447 777.3 452 823 452C868.7 452 914.3 447 937.2 444.5L960 442L960 541L937.2 541C914.3 541 868.7 541 823 541C777.3 541 731.7 541 686 541C640.3 541 594.7 541 548.8 541C503 541 457 541 411.2 541C365.3 541 319.7 541 274 541C228.3 541 182.7 541 137 541C91.3 541 45.7 541 22.8 541L0 541Z" fill="#d53867"></path><path d="M0 492L22.8 488.8C45.7 485.7 91.3 479.3 137 480.7C182.7 482 228.3 491 274 491.3C319.7 491.7 365.3 483.3 411.2 481.2C457 479 503 483 548.8 487.7C594.7 492.3 640.3 497.7 686 495.8C731.7 494 777.3 485 823 485.5C868.7 486 914.3 496 937.2 501L960 506L960 541L937.2 541C914.3 541 868.7 541 823 541C777.3 541 731.7 541 686 541C640.3 541 594.7 541 548.8 541C503 541 457 541 411.2 541C365.3 541 319.7 541 274 541C228.3 541 182.7 541 137 541C91.3 541 45.7 541 22.8 541L0 541Z" fill="#c62368"></path></svg>